<svg xmlns="http://www.w3.org/2000/svg" viewBox="0 0 141.47 119.23"><defs><style>.cls-1{fill:#987848;}.cls-2{fill:#3d2414;}</style></defs><g id="레이어_2" data-name="레이어 2"><g id="Layer_1" data-name="Layer 1"><g id="레이어_2-2" data-name="레이어 2"><path class="cls-1" d="M55.55,34.22S39.26,10,21,18.53C4.51,26.22,1.25,61.29,34.53,95.91l7.39,3.37-2-25.5Z"/><path class="cls-1" d="M78.53,111.47s23.86-8.42,39.5-35.69C131.27,52.7,128.34,31.14,112.26,22,90.18,9.38,37.51,36.87,45.55,97.82L52,110.15l25.88,4.32Z"/><path class="cls-2" d="M139.66,24.83C136.93,15.34,131.17,8.12,123,4,100.55-7.45,70,6.54,52,36.51a92,92,0,0,0-8.5,18.4,43.72,43.72,0,0,1-5.43-5.39C31.25,41.13,27,29.94,27,29.83a3.75,3.75,0,0,0-7,2.63c.19.5,4.7,12.43,12.34,21.8a57.08,57.08,0,0,0,9,8.52,69.81,69.81,0,0,0-1.78,18.66,52.68,52.68,0,0,0,1.84,11.81c-6.85-3.79-16.09-11.8-20.08-17.6-8-11.59-12.51-24.44-12.79-36.19-.26-11.08,3.33-19.75,10.12-24.41,9.89-6.8,26.05-3.22,33.89,4.53a4.25,4.25,0,0,0,6-6C48.06,3.22,27.61-1.45,13.81,8,4.58,14.39-.32,25.62,0,39.66.33,53,5.41,67.53,14.3,80.46c4.65,6.77,20.45,21.83,31.62,23.31A32.41,32.41,0,0,0,56.8,114.61a32.78,32.78,0,0,0,17.14,4.62,43.62,43.62,0,0,0,12.46-1.91A4.25,4.25,0,1,0,84,109.17c-8.45,2.52-16.19,2-22.41-1.63,2.3-2.48,18.81-20.48,31.7-38.76,13.93-19.73,19.72-34,20-34.63a3.75,3.75,0,0,0-7-2.79c0,.14-5.74,14.15-19.11,33.1C73.62,83.61,56,102.53,55.81,102.71l-.06.08c-4.61-5.2-7.3-12.68-7.72-21.74C47.44,68.22,51.44,54,59.31,40.89,74.74,15.21,101,2.32,119.14,11.54c6.1,3.1,10.26,8.37,12.34,15.63,3.93,13.7-.18,33.12-10.73,50.66-6.61,11-15.55,20.25-25.18,26.09a4.25,4.25,0,1,0,4.41,7.27c10.94-6.63,20.64-16.65,28.05-29C139.94,62.42,144.28,41,139.66,24.83Z"/></g></g></g></svg>